<?xml version="1.0" encoding="utf-8"?>
<!-- Generator: Adobe Illustrator 12.0.1, SVG Export Plug-In . SVG Version: 6.00 Build 51448)  -->
<!DOCTYPE svg PUBLIC "-//W3C//DTD SVG 1.1//EN" "http://www.w3.org/Graphics/SVG/1.1/DTD/svg11.dtd" [
	<!ENTITY ns_svg "http://www.w3.org/2000/svg">
	<!ENTITY ns_xlink "http://www.w3.org/1999/xlink">
]>
<svg  version="1.1" id="Layer_1" xmlns="&ns_svg;" xmlns:xlink="&ns_xlink;" width="72.13" height="72" viewBox="0 0 72.13 72"
	 overflow="visible" enable-background="new 0 0 72.13 72" xml:space="preserve">
<g>
	<path d="M71.883,57.401c0.148-0.436,0.247-0.894,0.247-1.377V15.976c0-0.459-0.092-0.894-0.226-1.31L48.375,34.812L71.883,57.401z"
		/>
	<path d="M36.063,39.67l6.197-5.042l3.137-2.552l23.628-20.225c-0.388-0.115-0.79-0.196-1.214-0.196H4.32
		c-0.425,0-0.828,0.081-1.217,0.197l23.642,20.235l3.137,2.553L36.063,39.67z"/>
	<path d="M67.811,60.345c0.406,0,0.792-0.075,1.166-0.182L45.239,37.362l-9.175,7.467l-9.161-7.455L3.155,60.164
		c0.373,0.105,0.759,0.181,1.165,0.181H67.811z"/>
	<path d="M0.226,14.666C0.092,15.082,0,15.517,0,15.976v40.049c0,0.484,0.099,0.942,0.247,1.377l23.519-22.58L0.226,14.666z"/>
</g>
<rect x="0.065" fill="none" width="72" height="72"/>
</svg>
