<?xml version="1.0" encoding="utf-8"?>
<!-- Generator: Adobe Illustrator 12.0.1, SVG Export Plug-In . SVG Version: 6.00 Build 51448)  -->
<!DOCTYPE svg PUBLIC "-//W3C//DTD SVG 1.1//EN" "http://www.w3.org/Graphics/SVG/1.1/DTD/svg11.dtd" [
	<!ENTITY ns_svg "http://www.w3.org/2000/svg">
	<!ENTITY ns_xlink "http://www.w3.org/1999/xlink">
]>
<svg  version="1.1" id="Layer_1" xmlns="&ns_svg;" xmlns:xlink="&ns_xlink;" width="72" height="72" viewBox="0 0 72 72"
	 overflow="visible" enable-background="new 0 0 72 72" xml:space="preserve">
<rect fill="none" width="72" height="72"/>
<path d="M63.482,50.912C59.134,48.979,52.681,44,43.126,42.289c2.443-2.615,4.293-6.705,6.195-11.551
	c1.103-2.808,0.913-5.201,0.913-8.609c0-2.518,0.475-6.558-0.15-8.778c-2.107-7.504-7.433-9.574-13.672-9.574
	c-6.244,0-11.575,2.08-13.679,9.597c-0.62,2.214-0.145,6.245-0.145,8.756c0,3.416-0.186,5.817,0.92,8.63
	c1.917,4.87,3.739,8.954,6.174,11.559C20.204,44.06,13.8,49.002,9.479,50.929c-8.941,3.987-8.985,8.353-8.985,8.353v7.415
	L72.5,66.688v-7.406C72.5,59.281,72.458,54.901,63.482,50.912z"/>
</svg>
