<?xml version="1.0" encoding="utf-8"?>
<!-- Generator: Adobe Illustrator 12.0.1, SVG Export Plug-In . SVG Version: 6.00 Build 51448)  -->
<!DOCTYPE svg PUBLIC "-//W3C//DTD SVG 1.1//EN" "http://www.w3.org/Graphics/SVG/1.1/DTD/svg11.dtd" [
	<!ENTITY ns_svg "http://www.w3.org/2000/svg">
	<!ENTITY ns_xlink "http://www.w3.org/1999/xlink">
]>
<svg  version="1.1" id="Layer_1" xmlns="&ns_svg;" xmlns:xlink="&ns_xlink;" width="72" height="72" viewBox="0 0 72 72"
	 overflow="visible" enable-background="new 0 0 72 72" xml:space="preserve">
<rect fill="none" width="72" height="72"/>
<g>
	<path d="M65.227,19.18l-2.713-4.043c-0.474-0.705-1.557-1.283-2.406-1.283h-6.303v-5.49c0-0.852-0.492-2.039-1.095-2.641
		l-4.599-4.594c-0.6-0.604-1.789-1.094-2.639-1.094H26.442c-0.851,0-2.037,0.49-2.639,1.094l-4.262,4.26
		c-0.601,0.602-1.093,1.789-1.093,2.639v5.826h-6.571c-0.851,0-1.934,0.578-2.408,1.283l-2.695,4.012
		c-0.475,0.705-0.167,1.283,0.684,1.283l4.551,0.002V70.42c0,0.848,0.696,1.545,1.546,1.545h45.21c0.851,0,1.547-0.697,1.547-1.545
		V20.459l4.229,0.002C65.393,20.463,65.699,19.885,65.227,19.18z M24.888,13.516v-2.82c0-0.848,0.492-2.035,1.093-2.637l0.492-0.492
		c0.601-0.602,1.788-1.092,2.639-1.092h13.693c0.852,0,2.037,0.49,2.639,1.092l0.826,0.826c0.602,0.602,1.094,1.787,1.094,2.639
		v2.484c0,0.117-0.016,0.23-0.04,0.338H24.929C24.904,13.746,24.888,13.633,24.888,13.516z M53.871,21.988v41.991
		c0,0.85-0.695,1.545-1.546,1.545h-32.33c-0.851,0-1.546-0.695-1.546-1.545V21.988c0-0.85,0.695-1.545,1.546-1.545h7.85
		l24.604,0.012C53.241,20.52,53.871,21.18,53.871,21.988z"/>
	<path d="M26.252,24.803h-1.873c-0.85,0-1.545,0.697-1.545,1.545v33.404c0,0.85,0.695,1.545,1.545,1.545h1.873
		c0.851,0,1.546-0.695,1.546-1.545V26.348C27.798,25.5,27.103,24.803,26.252,24.803z"/>
	<path d="M35.113,61.297h1.874c0.85,0,1.545-0.695,1.545-1.545V26.348c0-0.848-0.695-1.545-1.545-1.545h-1.874
		c-0.851,0-1.546,0.697-1.546,1.545v33.404C33.567,60.602,34.263,61.297,35.113,61.297z"/>
	<path d="M45.848,61.297h1.873c0.85,0,1.545-0.695,1.545-1.545V26.348c0-0.848-0.695-1.545-1.545-1.545h-1.873
		c-0.851,0-1.547,0.697-1.547,1.545v33.404C44.301,60.602,44.997,61.297,45.848,61.297z"/>
</g>
</svg>
