<?xml version="1.0" encoding="utf-8"?>
<!-- Generator: Adobe Illustrator 12.0.1, SVG Export Plug-In . SVG Version: 6.00 Build 51448)  -->
<!DOCTYPE svg PUBLIC "-//W3C//DTD SVG 1.1//EN" "http://www.w3.org/Graphics/SVG/1.1/DTD/svg11.dtd" [
	<!ENTITY ns_svg "http://www.w3.org/2000/svg">
	<!ENTITY ns_xlink "http://www.w3.org/1999/xlink">
]>
<svg  version="1.1" id="Layer_1" xmlns="&ns_svg;" xmlns:xlink="&ns_xlink;" width="72" height="72" viewBox="0 0 72 72"
	 overflow="visible" enable-background="new 0 0 72 72" xml:space="preserve">
<rect fill="none" width="72" height="72"/>
<g>
	<path d="M0.838,42.076C-0.28,40.955-0.277,39.119,0.843,38l7.198-7.199c1.12-1.121,2.954-1.121,4.075-0.002l11.689,11.664
		c1.121,1.119,2.954,1.117,4.072-0.004l32.036-32.111c1.119-1.121,2.953-1.127,4.077-0.01l7.162,7.111
		c1.124,1.117,1.129,2.947,0.01,4.068L32.314,60.459c-1.119,1.121-3.33,2.039-4.914,2.039h-3.356c-1.584,0-3.794-0.92-4.912-2.041
		L0.838,42.076z"/>
</g>
</svg>
