<?xml version="1.0" encoding="utf-8"?>
<!-- Generator: Adobe Illustrator 12.0.1, SVG Export Plug-In . SVG Version: 6.00 Build 51448)  -->
<!DOCTYPE svg PUBLIC "-//W3C//DTD SVG 1.1//EN" "http://www.w3.org/Graphics/SVG/1.1/DTD/svg11.dtd" [
	<!ENTITY ns_svg "http://www.w3.org/2000/svg">
	<!ENTITY ns_xlink "http://www.w3.org/1999/xlink">
]>
<svg  version="1.1" id="Layer_1" xmlns="&ns_svg;" xmlns:xlink="&ns_xlink;" width="72" height="72.068" viewBox="0 0 72 72.068"
	 overflow="visible" enable-background="new 0 0 72 72.068" xml:space="preserve">
<rect y="0.034" fill="none" width="72" height="72"/>
<path d="M71.203,27.279c-0.694-0.824-1.432-1.099-2.027-1.275c-0.611-0.164-1.171-0.207-1.757-0.209l-20.205-0.012
	c-0.188,0.01-0.623-0.116-0.979-0.397c-0.367-0.271-0.604-0.652-0.645-0.837L39.734,3.514c-0.19-0.662-0.404-1.261-0.846-1.912
	C38.49,1.014,37.604,0.038,35.998,0c-1.598,0.034-2.491,1.013-2.891,1.604c-0.44,0.655-0.656,1.258-0.843,1.92l-5.853,21.022
	c-0.04,0.187-0.277,0.567-0.645,0.839c-0.357,0.281-0.79,0.407-0.979,0.397L4.581,25.795c-0.78,0.012-1.506,0.062-2.387,0.435
	c-0.436,0.193-0.939,0.494-1.392,1.046c-0.458,0.538-0.769,1.374-0.754,2.12c0.024,1.196,0.53,1.928,0.944,2.435
	c0.438,0.513,0.898,0.874,1.412,1.218l16.284,10.731c0.291,0.124,0.803,1.029,0.757,1.63c0,0.149-0.019,0.272-0.047,0.362
	l-6.33,20.746c-0.178,0.599-0.311,1.177-0.315,1.886c0.01,0.593,0.079,1.365,0.678,2.232c0.58,0.893,1.867,1.451,2.745,1.396
	c1.665-0.092,2.358-0.748,3.183-1.372L35.282,57.1c0.13-0.121,0.463-0.264,0.836-0.262c0.361-0.002,0.674,0.128,0.805,0.241
	l16.783,13.67c0.829,0.604,1.513,1.229,3.142,1.315c0.037,0.002,0.077,0.003,0.117,0.003c0.837,0,2.01-0.506,2.584-1.354
	c0.614-0.858,0.688-1.645,0.696-2.228c-0.007-0.76-0.158-1.37-0.37-2.016l-7.116-20.878c-0.03-0.088-0.054-0.215-0.054-0.37
	c-0.039-0.565,0.421-1.369,0.688-1.482l16.203-10.692c0.516-0.344,0.979-0.707,1.416-1.22c0.41-0.509,0.916-1.237,0.939-2.435
	C71.966,28.65,71.654,27.816,71.203,27.279z"/>
</svg>
