<?xml version="1.0" encoding="utf-8"?>
<!-- Generator: Adobe Illustrator 12.0.1, SVG Export Plug-In . SVG Version: 6.00 Build 51448)  -->
<!DOCTYPE svg PUBLIC "-//W3C//DTD SVG 1.1//EN" "http://www.w3.org/Graphics/SVG/1.1/DTD/svg11.dtd" [
	<!ENTITY ns_svg "http://www.w3.org/2000/svg">
	<!ENTITY ns_xlink "http://www.w3.org/1999/xlink">
]>
<svg  version="1.1" id="Layer_1" xmlns="&ns_svg;" xmlns:xlink="&ns_xlink;" width="6.396" height="12" viewBox="0 0 6.396 12"
	 overflow="visible" enable-background="new 0 0 6.396 12" xml:space="preserve">
<path fill="#A0A0A0" d="M6.282,5.725l-5.61-5.611C0.596,0.038,0.496,0,0.396,0S0.197,0.038,0.121,0.114L0.114,0.121
	C0.041,0.194,0,0.293,0,0.396v2.723c0,0.104,0.041,0.202,0.114,0.275L2.72,6L0.114,8.605C0.041,8.679,0,8.777,0,8.881v2.723
	c0,0.104,0.041,0.202,0.114,0.275l0.007,0.008C0.194,11.959,0.293,12,0.396,12c0.103,0,0.202-0.041,0.275-0.113l5.61-5.611
	C6.434,6.124,6.434,5.876,6.282,5.725z"/>
</svg>
