<?xml version="1.0" encoding="utf-8"?>
<!-- Generator: Adobe Illustrator 12.0.1, SVG Export Plug-In . SVG Version: 6.00 Build 51448)  -->
<!DOCTYPE svg PUBLIC "-//W3C//DTD SVG 1.1//EN" "http://www.w3.org/Graphics/SVG/1.1/DTD/svg11.dtd" [
	<!ENTITY ns_svg "http://www.w3.org/2000/svg">
	<!ENTITY ns_xlink "http://www.w3.org/1999/xlink">
]>
<svg  version="1.1" id="Layer_1" xmlns="&ns_svg;" xmlns:xlink="&ns_xlink;" width="20" height="20" viewBox="0 0 20 20"
	 overflow="visible" enable-background="new 0 0 20 20" xml:space="preserve">
<rect fill="none" width="20" height="20"/>
<path fill="#AAAAAA" d="M4.861,9.542l9.351-9.351C14.336,0.064,14.502,0,14.67,0c0.164,0,0.332,0.063,0.457,0.19l0.014,0.012
	c0.121,0.122,0.189,0.287,0.189,0.459v4.538c0,0.172-0.068,0.337-0.189,0.459L10.797,10l4.344,4.342
	c0.121,0.122,0.189,0.286,0.189,0.458v4.539c0,0.172-0.068,0.337-0.189,0.459l-0.014,0.013C15.006,19.932,14.84,20,14.67,20
	c-0.174,0-0.338-0.068-0.461-0.189L4.86,10.46C4.607,10.206,4.607,9.795,4.861,9.542z"/>
</svg>
