<?xml version="1.0" encoding="utf-8"?>
<!-- Generator: Adobe Illustrator 12.0.1, SVG Export Plug-In . SVG Version: 6.00 Build 51448)  -->
<!DOCTYPE svg PUBLIC "-//W3C//DTD SVG 1.1//EN" "http://www.w3.org/Graphics/SVG/1.1/DTD/svg11.dtd" [
	<!ENTITY ns_svg "http://www.w3.org/2000/svg">
	<!ENTITY ns_xlink "http://www.w3.org/1999/xlink">
]>
<svg  version="1.1" id="Layer_1" xmlns="&ns_svg;" xmlns:xlink="&ns_xlink;" width="20" height="20" viewBox="0 0 20 20"
	 overflow="visible" enable-background="new 0 0 20 20" xml:space="preserve">
<rect fill="#EEEEEE" width="20" height="20"/>
<path fill="#AAAAAA" d="M15.139,9.542L5.789,0.19C5.663,0.064,5.497,0,5.33,0C5.165,0,4.998,0.064,4.872,0.19L4.86,0.202
	C4.738,0.324,4.67,0.489,4.67,0.661v4.538c0,0.172,0.068,0.337,0.19,0.459L9.203,10L4.86,14.342c-0.122,0.122-0.19,0.286-0.19,0.458
	v4.539c0,0.172,0.068,0.337,0.19,0.459l0.011,0.013C4.993,19.932,5.159,20,5.33,20c0.172,0,0.337-0.068,0.459-0.189l9.352-9.351
	C15.393,10.206,15.393,9.795,15.139,9.542z"/>
</svg>
