<?xml version="1.0" encoding="utf-8"?>
<!-- Generator: Adobe Illustrator 12.0.1, SVG Export Plug-In . SVG Version: 6.00 Build 51448)  -->
<!DOCTYPE svg PUBLIC "-//W3C//DTD SVG 1.1//EN" "http://www.w3.org/Graphics/SVG/1.1/DTD/svg11.dtd" [
	<!ENTITY ns_svg "http://www.w3.org/2000/svg">
	<!ENTITY ns_xlink "http://www.w3.org/1999/xlink">
]>
<svg  version="1.1" id="Layer_1" xmlns="&ns_svg;" xmlns:xlink="&ns_xlink;" width="72" height="72" viewBox="0 0 72 72"
	 overflow="visible" enable-background="new 0 0 72 72" xml:space="preserve">
<rect fill="none" width="72" height="72"/>
<g>
	<path d="M72.254,28.273c-0.136,0-3.83,0-8.21,0c-4.381,0-5.431-2.535-2.334-5.632c3.098-3.098,5.711-5.71,5.807-5.806
		c0.096-0.097,0.096-0.252,0-0.349c-0.096-0.096-2.588-2.588-5.539-5.539c-2.95-2.949-5.443-5.441-5.538-5.538
		c-0.096-0.096-0.253-0.096-0.349,0c-0.096,0.097-2.707,2.709-5.805,5.806s-5.631,2.048-5.631-2.332c0-4.381,0-8.074,0-8.21
		s-0.111-0.246-0.246-0.246c-0.137,0-3.66,0-7.833,0s-7.697,0-7.833,0c-0.135,0-0.246,0.11-0.246,0.246s0,3.829,0,8.21
		c0,4.38-2.533,5.429-5.631,2.332s-5.71-5.709-5.806-5.806c-0.096-0.096-0.253-0.096-0.349,0c-0.095,0.097-2.588,2.589-5.538,5.538
		c-2.95,2.951-5.443,5.443-5.539,5.539c-0.096,0.097-0.096,0.252,0,0.349c0.096,0.096,2.708,2.708,5.806,5.806
		c3.098,3.097,2.048,5.632-2.332,5.632c-4.381,0-8.076,0-8.211,0c-0.136,0-0.246,0.11-0.246,0.246c0,0.135,0,3.66,0,7.832
		c0,4.173,0,7.698,0,7.833c0,0.136,0.11,0.246,0.246,0.246c0.135,0,3.83,0,8.209,0c4.381,0,5.43,2.534,2.334,5.631
		c-3.098,3.098-5.71,5.709-5.806,5.805c-0.096,0.097-0.096,0.252,0,0.349c0.096,0.096,2.588,2.588,5.538,5.539
		c2.951,2.95,5.443,5.442,5.539,5.539c0.096,0.096,0.252,0.096,0.348,0c0.096-0.097,2.709-2.709,5.806-5.806
		c3.099-3.098,5.632-2.048,5.632,2.332c0,4.381,0,8.075,0,8.211s0.111,0.246,0.246,0.246c0.136,0,3.66,0,7.833,0s7.696,0,7.833,0
		c0.135,0,0.246-0.11,0.246-0.246s0-3.83,0-8.211c0-4.38,2.533-5.43,5.631-2.333s5.71,5.709,5.806,5.806
		c0.096,0.096,0.253,0.096,0.349,0c0.095-0.097,2.588-2.589,5.538-5.539s5.442-5.442,5.538-5.538c0.096-0.097,0.096-0.252,0-0.349
		c-0.096-0.096-2.707-2.707-5.805-5.805c-3.097-3.097-2.047-5.631,2.333-5.631s8.073,0,8.209,0s0.246-0.11,0.246-0.246
		c0-0.135,0-3.66,0-7.833c0-4.172,0-7.697,0-7.832C72.5,28.384,72.39,28.273,72.254,28.273z M37.114,48.166
		c-6.663,0-12.064-5.4-12.064-12.063c0-6.662,5.401-12.064,12.064-12.064c6.662,0,12.064,5.402,12.064,12.064
		C49.179,42.766,43.776,48.166,37.114,48.166z"/>
</g>
</svg>
