<?xml version="1.0" encoding="utf-8"?>
<!-- Generator: Adobe Illustrator 12.0.1, SVG Export Plug-In . SVG Version: 6.00 Build 51448)  -->
<!DOCTYPE svg PUBLIC "-//W3C//DTD SVG 1.1//EN" "http://www.w3.org/Graphics/SVG/1.1/DTD/svg11.dtd" [
	<!ENTITY ns_svg "http://www.w3.org/2000/svg">
	<!ENTITY ns_xlink "http://www.w3.org/1999/xlink">
]>
<svg  version="1.1" id="Layer_1" xmlns="&ns_svg;" xmlns:xlink="&ns_xlink;" width="72" height="72" viewBox="0 0 72 72"
	 overflow="visible" enable-background="new 0 0 72 72" xml:space="preserve">
<rect fill="none" width="72" height="72"/>
<g>
	<polygon points="27.504,42.285 15.381,54.408 13.227,52.255 25.351,40.132 21.961,36.741 6.398,52.303 6.393,52.303 6.393,52.309 
		6.391,52.309 6.393,52.31 0.104,71.661 19.457,65.375 19.457,65.376 19.459,65.375 19.463,65.373 19.463,65.37 35.025,49.808 	"/>
	<polygon points="40.025,25.458 45.637,19.847 47.789,21.998 42.178,27.61 49.699,35.133 58.668,26.164 45.602,13.1 36.635,22.067 	
		"/>
	<rect x="54.79" y="1.657" transform="matrix(0.707 -0.7072 0.7072 0.707 10.1291 46.2391)" width="12.163" height="18.476"/>
	<path d="M55.689,40.589c-1.549,0-3.21,0.507-4.845,1.347L30.048,21.138c0.833-1.633,1.332-3.276,1.331-4.783
		c0-8.272-7.862-16.279-16.126-16.28c-0.052,0-0.103,0.001-0.153,0.001c-0.032,0-0.973,0.953-1.484,1.465
		c6.668,6.67,6.117,5.586,6.117,9.677c0,3.319-5.315,8.56-8.56,8.56c-0.712,0-1.265,0.02-1.726,0.02
		c-2.256,0-2.29-0.479-7.949-6.139c-0.529,0.529-1.468,1.455-1.469,1.486c0.102,8.322,7.961,16.279,16.281,16.279
		c1.507,0,3.118-0.479,4.709-1.279l20.867,20.867c-0.793,1.588-1.266,3.184-1.266,4.646c0,8.273,7.863,16.282,16.129,16.282
		c0.051,0,0.1,0,0.15-0.001c0.032,0,0.973-0.954,1.484-1.467c-6.668-6.668-6.117-5.584-6.117-9.676c0-3.318,5.315-8.56,8.559-8.56
		c0.711,0,1.264-0.02,1.724-0.02c2.257,0,2.292,0.479,7.952,6.138c0.529-0.527,1.467-1.453,1.469-1.484
		C71.869,48.548,64.01,40.589,55.689,40.589z"/>
</g>
</svg>
