<?xml version="1.0" encoding="utf-8"?>
<!-- Generator: Adobe Illustrator 12.0.1, SVG Export Plug-In . SVG Version: 6.00 Build 51448)  -->
<!DOCTYPE svg PUBLIC "-//W3C//DTD SVG 1.1//EN" "http://www.w3.org/Graphics/SVG/1.1/DTD/svg11.dtd" [
	<!ENTITY ns_svg "http://www.w3.org/2000/svg">
	<!ENTITY ns_xlink "http://www.w3.org/1999/xlink">
]>
<svg  version="1.1" id="Layer_1" xmlns="&ns_svg;" xmlns:xlink="&ns_xlink;" width="20" height="19.98" viewBox="0 0 20 19.98"
	 overflow="visible" enable-background="new 0 0 20 19.98" xml:space="preserve">
<g>
	<polygon fill="#444444" points="7.638,11.737 4.268,15.108 3.669,14.51 7.039,11.14 6.097,10.196 1.771,14.522 1.769,14.522 
		1.769,14.524 1.769,14.524 1.769,14.524 0.021,19.904 5.401,18.157 5.401,18.157 5.401,18.157 5.402,18.156 5.402,18.156 
		9.729,13.829 	"/>
	<polygon fill="#444444" points="11.119,7.061 12.68,5.5 13.277,6.099 11.718,7.658 13.809,9.75 16.302,7.257 12.669,3.624 
		10.177,6.117 	"/>
	
		<rect x="15.224" y="0.443" transform="matrix(-0.7071 0.7071 -0.7071 -0.7071 31.0039 -6.8183)" fill="#444444" width="3.381" height="5.138"/>
	<path fill="#444444" d="M15.475,11.267c-0.432,0-0.894,0.142-1.348,0.374L8.346,5.859c0.231-0.453,0.37-0.91,0.369-1.33
		c0-2.3-2.186-4.524-4.482-4.525c-0.015,0-0.028,0.001-0.043,0.001c-0.009,0-0.271,0.265-0.412,0.407
		c1.854,1.854,1.7,1.553,1.7,2.688c0,0.923-1.478,2.38-2.38,2.38c-0.197,0-0.352,0.006-0.479,0.006c-0.627,0-0.637-0.134-2.21-1.707
		C0.261,3.927,0,4.184,0,4.192c0.028,2.313,2.213,4.526,4.526,4.526c0.419,0,0.867-0.134,1.309-0.356l5.802,5.803
		c-0.221,0.44-0.352,0.885-0.352,1.291c0,2.301,2.186,4.525,4.482,4.525c0.015,0,0.027,0,0.043,0c0.008,0,0.271-0.265,0.412-0.406
		c-1.854-1.854-1.701-1.554-1.701-2.69c0-0.922,1.479-2.38,2.379-2.38c0.199,0,0.353-0.005,0.479-0.005
		c0.628,0,0.638,0.133,2.211,1.706c0.147-0.146,0.407-0.403,0.408-0.412C19.973,13.479,17.787,11.267,15.475,11.267z"/>
</g>
</svg>
