<?xml version="1.0" encoding="utf-8"?>
<!-- Generator: Adobe Illustrator 12.0.1, SVG Export Plug-In . SVG Version: 6.00 Build 51448)  -->
<!DOCTYPE svg PUBLIC "-//W3C//DTD SVG 1.1//EN" "http://www.w3.org/Graphics/SVG/1.1/DTD/svg11.dtd" [
	<!ENTITY ns_svg "http://www.w3.org/2000/svg">
	<!ENTITY ns_xlink "http://www.w3.org/1999/xlink">
]>
<svg  version="1.1" id="Layer_1" xmlns="&ns_svg;" xmlns:xlink="&ns_xlink;" width="20.001" height="20.043"
	 viewBox="0 0 20.001 20.043" overflow="visible" enable-background="new 0 0 20.001 20.043" xml:space="preserve">
<rect y="0.021" fill="#EEEEEE" width="20.001" height="20"/>
<path fill="none" stroke="#666666" d="M19.304,7.708c-0.184-0.219-0.378-0.291-0.536-0.337c-0.161-0.044-0.31-0.055-0.464-0.055
	l-5.339-0.004c-0.051,0.002-0.166-0.03-0.259-0.105c-0.098-0.071-0.159-0.172-0.171-0.22l-1.547-5.559
	c-0.051-0.175-0.106-0.333-0.223-0.506C10.66,0.768,10.424,0.509,10.001,0.5C9.579,0.508,9.343,0.768,9.236,0.923
	C9.12,1.096,9.063,1.256,9.014,1.43L7.468,6.986C7.456,7.035,7.395,7.135,7.297,7.208C7.202,7.282,7.088,7.315,7.039,7.312
	L1.7,7.316C1.493,7.319,1.301,7.332,1.068,7.431C0.953,7.481,0.82,7.561,0.7,7.707C0.58,7.848,0.497,8.069,0.501,8.267
	c0.007,0.316,0.14,0.509,0.25,0.643c0.115,0.137,0.237,0.23,0.373,0.322l4.304,2.836c0.076,0.032,0.212,0.271,0.199,0.43
	c0,0.04-0.005,0.073-0.013,0.097l-1.672,5.482c-0.047,0.158-0.082,0.311-0.083,0.498c0.003,0.156,0.021,0.36,0.178,0.59
	c0.154,0.235,0.494,0.383,0.725,0.369c0.441-0.023,0.624-0.197,0.843-0.363l4.207-3.582c0.034-0.032,0.123-0.069,0.222-0.069
	c0.095,0,0.178,0.033,0.213,0.063l4.435,3.611c0.219,0.16,0.4,0.325,0.83,0.349c0.01,0,0.02,0.001,0.03,0.001
	c0.221,0,0.531-0.134,0.684-0.358c0.163-0.227,0.182-0.435,0.184-0.589c-0.002-0.2-0.042-0.362-0.099-0.533l-1.88-5.517
	c-0.009-0.022-0.015-0.058-0.015-0.099c-0.011-0.149,0.111-0.361,0.181-0.392l4.281-2.825c0.138-0.091,0.26-0.187,0.375-0.322
	c0.109-0.135,0.243-0.326,0.249-0.643C19.505,8.07,19.422,7.849,19.304,7.708z"/>
</svg>
